<svg xmlns="http://www.w3.org/2000/svg" viewBox="0 0 48 48"><defs><style>.cls-1{fill:#fff;}</style></defs><title>Supporting Processes</title><g id="Graph"><g id="Element"><path class="cls-1" d="M46,5.05H31.48l-.09,0h0l-.08,0h0L17.24,11.66l-14-6.54a.74.74,0,0,0-1.06.67V35.52a.74.74,0,0,0,.43.67l14.34,6.69h0l.07,0h.34l.07,0h0l.07,0h0l14.23-6.62H46a.74.74,0,0,0,.74-.74V5.79A.74.74,0,0,0,46,5.05ZM16.5,41,3.64,35V32.87l.07-.11C3.77,32.65,9.48,21.67,16.5,21Zm0-21.53a11,11,0,0,0-5.22,2A18,18,0,0,0,9.6,22.76l-.12-.29A.74.74,0,1,0,8.11,23l.33.79q-.92.91-1.83,2a37.82,37.82,0,0,0-3,4.1V7L16.5,13ZM30.88,35,18,41v-8l.19,0a4.67,4.67,0,0,0,1-.41.74.74,0,1,0-.73-1.3,3.5,3.5,0,0,1-.44.21V21.06c2.32.47,5,2.88,7.38,5,2,1.77,3.84,3.46,5.52,4.13Zm0-6.46A27.22,27.22,0,0,1,26.35,25l-.44-.4.22-.34,0-.07a.74.74,0,1,0-1.24-.81l0,.07-.1.16c-2.25-2-4.53-3.71-6.81-4V13L30.88,7Zm14.34,6.19H32.36V30.62a22.26,22.26,0,0,0,9.13-.41,30.45,30.45,0,0,0,3.73-1.14Zm0-7.31c-1.61.66-7.48,2.8-12.86,1.64V17.29l.58-.1a.74.74,0,1,0-.2-1.47l-.38.06V6.54H45.22Z"/><path class="cls-1" d="M24,26.14a.74.74,0,0,0-1,.19l-.51.72a.74.74,0,1,0,1.21.86l.52-.74A.74.74,0,0,0,24,26.14Z"/><path class="cls-1" d="M35.44,17.15l.84.11h.12a.74.74,0,0,0,.12-1.48c-.31-.05-.63-.09-.93-.12a.74.74,0,1,0-.14,1.48Z"/><path class="cls-1" d="M38.75,17.88l.81.29a.74.74,0,1,0,.54-1.38l-.87-.32a.74.74,0,0,0-.47,1.41Z"/><path class="cls-1" d="M21.91,29a.74.74,0,0,0-1,.08c-.19.23-.39.44-.57.64a.74.74,0,1,0,1.08,1c.2-.21.41-.45.62-.69A.74.74,0,0,0,21.91,29Z"/><path class="cls-1" d="M41.9,19.26l.76.42a.74.74,0,0,0,.75-1.28L42.6,18a.74.74,0,0,0-.7,1.31Z"/><path class="cls-1" d="M28.67,19.24a.74.74,0,0,0,1-.09c.19-.23.38-.44.56-.63a.74.74,0,1,0-1.07-1c-.2.21-.41.44-.63.7A.74.74,0,0,0,28.67,19.24Z"/><path class="cls-1" d="M10.05,27.15a.74.74,0,1,0,1.3-.72l-.41-.77a.74.74,0,0,0-1.32.68Z"/><path class="cls-1" d="M11.53,29.49c.19.26.38.51.57.74a.74.74,0,1,0,1.14-.95c-.17-.21-.35-.43-.52-.67a.74.74,0,1,0-1.2.88Z"/><path class="cls-1" d="M4.22,10.09a.74.74,0,0,0,.72.58l.16,0a.74.74,0,0,0,.57-.88c-.12-.55-.18-.86-.18-.87A.74.74,0,0,0,4,9.2S4.09,9.53,4.22,10.09Z"/><path class="cls-1" d="M14.21,32.19a6.49,6.49,0,0,0,.87.49.74.74,0,1,0,.63-1.35A5,5,0,0,1,15,31a.74.74,0,1,0-.83,1.23Z"/><path class="cls-1" d="M5.37,11.83a.74.74,0,0,0-.54.9l.22.87a.74.74,0,0,0,.72.56l.19,0a.74.74,0,0,0,.53-.91l-.22-.86A.74.74,0,0,0,5.37,11.83Z"/><path class="cls-1" d="M6.85,19.65l.3.85a.74.74,0,1,0,1.4-.5l-.29-.83a.74.74,0,1,0-1.41.48Z"/><path class="cls-1" d="M26.62,22.16a.74.74,0,0,0,1-.2l.5-.73a.74.74,0,0,0-1.22-.85l-.51.74A.74.74,0,0,0,26.62,22.16Z"/><path class="cls-1" d="M6.28,15.29a.74.74,0,0,0-.51.92l.26.86a.74.74,0,1,0,1.42-.43l-.25-.85A.74.74,0,0,0,6.28,15.29Z"/></g></g></svg>