<svg xmlns="http://www.w3.org/2000/svg" viewBox="0 0 48 48"><defs><style>.cls-1{fill:#fff;}</style></defs><title>Data Governance</title><g id="Award"><path class="cls-1" d="M23.57,41.19a18.6,18.6,0,0,1-11.93-4.13,14.5,14.5,0,0,1-3.7-4.57,13.06,13.06,0,0,1-.73-1.75s-.07-.22-.14-.49h0v0h0l0-.12A.74.74,0,0,1,7,30v-.05H7v0H7l0-.11a.78.78,0,0,1,0-.09l0-.08,0-.17a.77.77,0,0,1,0-.08l0-.09,0-.17V28.9c0-.24-.08-.47-.1-.68a12.33,12.33,0,0,1-.08-1.44,13.19,13.19,0,0,1,2.55-7.59c1.28-2,.49-3.7-.82-6.5-.28-.59-.56-1.2-.84-1.84l-.19-.45a.75.75,0,0,1,.2-.86l2.79-2.42a.75.75,0,0,1,1,0l.44.45a7.37,7.37,0,0,0,5.72,1.83,9.14,9.14,0,0,0,5.17-1.88l.45-.42a.75.75,0,0,1,1,0l.45.41a9.14,9.14,0,0,0,5.17,1.88A8.8,8.8,0,0,0,33.25,9h0a6.52,6.52,0,0,0,2.06-1.27l.05,0,.49-.5a.75.75,0,0,1,1,0l2.8,2.42a.75.75,0,0,1,.2.86l-.19.45c-.28.64-.56,1.25-.84,1.84-1.31,2.8-2.11,4.49-.82,6.5a13.19,13.19,0,0,1,2.55,7.59,12.48,12.48,0,0,1-1.38,5.7,14.51,14.51,0,0,1-3.7,4.57A18.6,18.6,0,0,1,23.57,41.19ZM8.22,28.61a16.64,16.64,0,0,0,.42,1.66,11.48,11.48,0,0,0,.64,1.53,13,13,0,0,0,3.32,4.1,17.1,17.1,0,0,0,11,3.78,17.1,17.1,0,0,0,11-3.78,13,13,0,0,0,3.32-4.1,11,11,0,0,0,1.22-5A11.86,11.86,0,0,0,36.75,20c-1.73-2.71-.64-5,.73-7.94.26-.56.53-1.13.8-1.74l-1.85-1.6,0,0a8,8,0,0,1-2.63,1.64h0a10.3,10.3,0,0,1-4.17.54,10.65,10.65,0,0,1-6-2.22,10.64,10.64,0,0,1-6,2.22A8.86,8.86,0,0,1,10.7,8.72l-1.85,1.6c.26.61.53,1.18.8,1.74C11,15,12.11,17.29,10.38,20a11.86,11.86,0,0,0-2.32,6.78,11,11,0,0,0,.08,1.28v.11l0,.19v.14Z"/><path class="cls-1" d="M23.57,22.36a2.12,2.12,0,0,0-.66,4.14v3.55h1.32V26.5a2.12,2.12,0,0,0-.66-4.14Z"/><path class="cls-1" d="M32.06,35.7h-17a.75.75,0,0,1-.75-.75V18.68a.75.75,0,0,1,.75-.75h17a.75.75,0,0,1,.75.75V34.95A.75.75,0,0,1,32.06,35.7ZM15.82,34.2H31.31V19.43H15.82Z"/><path class="cls-1" d="M27.94,19.43H19.19a.75.75,0,0,1-.75-.75c0-2.28,0-7.62,5.13-7.62s5.13,5.34,5.13,7.63A.75.75,0,0,1,27.94,19.43Zm-8-1.5h7.24c-.06-2.82-.54-5.37-3.62-5.37S20,15.11,19.95,17.93Z"/></g></svg>