<svg xmlns="http://www.w3.org/2000/svg" viewBox="0 0 48 48"><defs><style>.cls-1{fill:#fff;}</style></defs><title>Platform &amp;amp; Standards</title><g id="Money"><path class="cls-1" d="M38,10a11,11,0,1,0,0,15.61A11,11,0,0,0,38,10ZM36.55,24.23a9,9,0,1,1,0-12.78A9,9,0,0,1,36.55,24.23Z"/><path class="cls-1" d="M41.11,6.88A15.49,15.49,0,0,0,16.05,24.22l.48.93L3.34,38.34a1,1,0,0,0,0,1.41l4.9,4.9a1,1,0,0,0,1.41,0L22.83,31.48l.94.47A15.49,15.49,0,0,0,41.11,6.88ZM21,30.44,9,42.53,5.47,39,17.55,27A16.39,16.39,0,0,0,21,30.44ZM39.7,27.38a13.5,13.5,0,0,1-19.08,0h0a13.5,13.5,0,1,1,19.09,0Z"/></g></svg>