<svg xmlns="http://www.w3.org/2000/svg" viewBox="0 0 48 48"><defs><style>.cls-1{fill:#fff;}</style></defs><title>Data Operations</title><g id="Pin"><path class="cls-1" d="M43,33.51H40.92V28.18H42.2a1.56,1.56,0,0,0,1.55-1.55V23.81a1.56,1.56,0,0,0-1.55-1.55H24.82v-5.7h3A1.56,1.56,0,0,0,29.41,15V7.3a1.56,1.56,0,0,0-1.55-1.55H20.15A1.56,1.56,0,0,0,18.59,7.3V15a1.56,1.56,0,0,0,1.56,1.56h3v5.7H5.8a1.56,1.56,0,0,0-1.56,1.55v2.81A1.56,1.56,0,0,0,5.8,28.18H7.08v5.33H5a1.37,1.37,0,0,0-1.37,1.37v5.75A1.37,1.37,0,0,0,5,42h5.75a1.37,1.37,0,0,0,1.37-1.37V34.88a1.37,1.37,0,0,0-1.37-1.37H8.72V28.18H23.18v5.33H21.12a1.37,1.37,0,0,0-1.37,1.37v5.75A1.37,1.37,0,0,0,21.12,42h5.75a1.37,1.37,0,0,0,1.37-1.37V34.88a1.37,1.37,0,0,0-1.37-1.37H24.82V28.18H39.28v5.33H37.22a1.37,1.37,0,0,0-1.37,1.37v5.75A1.37,1.37,0,0,0,37.22,42H43a1.37,1.37,0,0,0,1.37-1.37V34.88A1.37,1.37,0,0,0,43,33.51ZM20.23,14.92V7.39h7.53v7.53ZM5.89,26.54V23.9H42.11v2.64Zm4.62,8.61v5.21H5.3V35.15Zm16.1,0v5.21H21.4V35.15Zm16.1,0v5.21H37.49V35.15Z"/></g></svg>